#!OML:ASF E:\VariousWalksJay\Project 1\Capture day 1\Session 1\Actor2.ASF
:FULLY-SPECIFIED
:DEGREES
541
root 9.20017 17.3488 -0.737623 3.54458 -18.246 3.58516
lowerback -11.8149 -7.63063 3.57489
upperback -1.83344 -10.7373 3.01499
thorax 4.54953 -5.26789 -0.473749
lowerneck -9.22755 3.1077 5.33944
upperneck 9.21005 3.13064 2.56837
head 4.32 1.86421 0.128367
rclavicle -3.59552e-014 -1.27222e-014
rhumerus -72.1303 25.0836 -92.2403
rradius 40.9179
rwrist 0.450105
rhand -10.5044 9.69867
rfingers 7.12502
rthumb 15.4979 -19.7002
lclavicle -3.59552e-014 -1.27222e-014
lhumerus 24.0003 -58.1719 48.826
lradius 108.137
lwrist 18.5015
lhand -5.56687 -22.3674
lfingers 7.12502
lthumb 20.2487 6.59719
rfemur -34.6698 3.13713 16.7532
rtibia 32.412
rfoot -22.1379 -6.73384
rtoes -12.7579
lfemur 22.7809 11.8605 -26.0954
ltibia 7.0325
lfoot 3.15485 3.73614
ltoes -20.8628
542
root 9.13875 17.3848 -0.591683 3.64175 -17.7838 3.51803
lowerback -11.8576 -7.65217 3.62917
upperback -1.97474 -10.7698 3.07185
thorax 4.42459 -5.28818 -0.442709
lowerneck -9.28104 3.09279 5.22319
upperneck 9.30111 3.13149 2.47769
head 4.35585 1.8585 0.12085
rclavicle 2.52457e-014 -2.54444e-014
rhumerus -72.0015 25.1209 -91.8363
rradius 41.3688
rwrist 0.296269
rhand -10.5979 9.73719
rfingers 7.12502
rthumb 15.4078 -19.6686
lclavicle 2.52457e-014 -2.54444e-014
lhumerus 23.7243 -58.5961 48.9586
lradius 107.99
lwrist 18.6443
lhand -5.62829 -22.3856
lfingers 7.12502
lthumb 20.1896 6.58523
rfemur -34.1059 3.08183 16.8287
rtibia 32.5591
rfoot -22.2156 -7.34991
rtoes -12.4699
lfemur 21.9127 11.5203 -25.7442
ltibia 9.10558
lfoot 4.12551 3.73752
ltoes -20.2023
543
root 9.0777 17.4154 -0.446182 3.69578 -17.3795 3.45486
lowerback -11.8778 -7.62774 3.67448
upperback -2.08045 -10.7401 3.11128
thorax 4.32447 -5.27678 -0.41569
lowerneck -9.36466 3.06249 5.14867
upperneck 9.35236 3.10738 2.36962
head 4.38517 1.84007 0.0997808
rclavicle 1.08959e-013 -4.29375e-014
rhumerus -71.7999 25.1322 -91.4698
rradius 41.7512
rwrist 0.23286
rhand -10.6988 9.78976
rfingers 7.12502
rthumb 15.3106 -19.6235
lclavicle 1.08959e-013 -4.29375e-014
lhumerus 23.4461 -59.064 49.1221
lradius 107.802
lwrist 18.7581
lhand -5.68889 -22.4208
lfingers 7.12502
lthumb 20.1314 6.55612
rfemur -33.5569 2.92902 16.9481
rtibia 32.7825
rfoot -22.2818 -8.0195
rtoes -12.2345
lfemur 21.1322 11.2403 -25.3764
ltibia 11.1001
lfoot 5.12099 3.73715
ltoes -19.3652
544
root 9.01741 17.4401 -0.301589 3.70638 -17.036 3.40279
lowerback -11.869 -7.59092 3.69306
upperback -2.1656 -10.6907 3.15984
thorax 4.23722 -5.25571 -0.360552
lowerneck -9.42902 3.04107 5.07953
upperneck 9.35629 3.10059 2.23511
head 4.39737 1.82758 0.0700867
rclavicle -1.71452e-014 -1.74931e-014
rhumerus -71.5471 25.2367 -91.165
rradius 42.0746
rwrist 0.230809
rhand -10.8083 9.85992
rfingers 7.12502
rthumb 15.2051 -19.5614
lclavicle -1.71452e-014 -1.74931e-014
lhumerus 23.0069 -59.5151 49.4321
lradius 107.58
lwrist 18.8025
lhand -5.76539 -22.4633
lfingers 7.12502
lthumb 20.0579 6.52139
rfemur -33.0327 2.66212 17.1015
rtibia 33.0878
rfoot -22.327 -8.70558
rtoes -12.0635
lfemur 20.4294 11.3639 -24.8739
ltibia 13.0742
lfoot 6.17584 3.38693
ltoes -18.4106
545
root 8.95788 17.4587 -0.157734 3.66973 -16.7551 3.36572
lowerback -11.8346 -7.51707 3.6906
upperback -2.2177 -10.5894 3.19327
thorax 4.17271 -5.20824 -0.301856
lowerneck -9.52141 3.01302 5.04127
upperneck 9.34834 3.08071 2.08637
head 4.41116 1.80873 0.0305411
rclavicle 5.96354e-016 1.59028e-015
rhumerus -71.2082 25.34 -90.888
rradius 42.3406
rwrist 0.286888
rhand -10.9092 9.94557
rfingers 7.12502
rthumb 15.1079 -19.4831
lclavicle 5.96354e-016 1.59028e-015
lhumerus 22.5176 -59.9922 49.8079
lradius 107.302
lwrist 18.7633
lhand -5.84672 -22.5004
lfingers 7.12502
lthumb 19.9797 6.49241
rfemur -32.5328 2.28894 17.276
rtibia 33.4805
rfoot -22.355 -9.38522
rtoes -11.9188
lfemur 19.7662 11.5476 -24.3829
ltibia 15.055
lfoot 7.21295 3.04969
ltoes -17.3532
546
root 8.89875 17.4711 -0.0153334 3.59615 -16.5471 3.3241
lowerback -11.7647 -7.42057 3.6803
upperback -2.25692 -10.4563 3.23279
thorax 4.10538 -5.14525 -0.224754
lowerneck -9.59795 2.99358 5.00293
upperneck 9.33455 3.0745 1.93071
head 4.4208 1.79591 -0.0105333
rclavicle 6.4605e-015 -2.22639e-014
rhumerus -70.8144 25.5044 -90.6534
rradius 42.5617
rwrist 0.356629
rhand -11.0147 10.012
rfingers 7.12502
rthumb 15.0063 -19.4243
lclavicle 6.4605e-015 -2.22639e-014
lhumerus 21.8254 -60.4665 50.3812
lradius 106.953
lwrist 18.6281
lhand -5.91622 -22.5504
lfingers 7.12502
lthumb 19.9129 6.4494
rfemur -32.0637 1.85901 17.4797
rtibia 33.9561
rfoot -22.3538 -10.062
rtoes -11.7857
lfemur 19.1159 11.7883 -23.8881
ltibia 17.0771
lfoot 8.21864 2.73472
ltoes -16.222
547
root 8.83999 17.4767 0.126417 3.47505 -16.4102 3.28358
lowerback -11.6539 -7.29147 3.65686
upperback -2.27769 -10.2771 3.2696
thorax 4.03749 -5.05957 -0.133354
lowerneck -9.67024 2.97139 4.95734
upperneck 9.33901 3.06533 1.77627
head 4.43518 1.78173 -0.0502115
rclavicle 1.89094e-013 4.13472e-014
rhumerus -70.3474 25.6837 -90.4309
rradius 42.7406
rwrist 0.41859
rhand -11.1316 10.0322
rfingers 7.12502
rthumb 14.8937 -19.4124
lclavicle 1.89094e-013 4.13472e-014
lhumerus 20.9629 -60.9562 51.1442
lradius 106.518
lwrist 18.4113
lhand -5.96142 -22.5946
lfingers 7.12502
lthumb 19.8694 6.4097
rfemur -31.61 1.38137 17.6996
rtibia 34.5096
rfoot -22.3155 -10.6985
rtoes -11.6247
lfemur 18.483 12.0765 -23.3954
ltibia 19.1583
lfoot 9.17981 2.43995
ltoes -15.0579
548
root 8.78128 17.4755 0.26732 3.31591 -16.3487 3.22738
lowerback -11.5163 -7.1273 3.65357
upperback -2.27111 -10.0531 3.29181
thorax 3.97781 -4.95091 -0.0602126
lowerneck -9.74109 2.94409 4.93403
upperneck 9.35772 3.04685 1.61289
head 4.45411 1.76339 -0.0967556
rclavicle 6.57977e-014 1.90833e-014
rhumerus -69.7707 25.8562 -90.2201
rradius 42.8627
rwrist 0.469273
rhand -11.2638 9.99939
rfingers 7.12502
rthumb 14.7664 -19.4546
lclavicle 6.57977e-014 1.90833e-014
lhumerus 19.9432 -61.4536 52.05
lradius 106
lwrist 18.1514
lhand -5.97462 -22.6353
lfingers 7.12502
lthumb 19.8568 6.37029
rfemur -31.173 0.904623 17.942
rtibia 35.1301
rfoot -22.2406 -11.2623
rtoes -11.3875
lfemur 17.8539 12.4019 -22.8913
ltibia 21.3136
lfoot 10.0868 2.16701
ltoes -13.8537
549
root 8.72229 17.4672 0.407411 3.12281 -16.3608 3.14715
lowerback -11.3587 -6.933 3.67351
upperback -2.23866 -9.7918 3.3062
thorax 3.92937 -4.82291 -0.00230635
lowerneck -9.81162 2.91838 4.91528
upperneck 9.40324 3.02803 1.46024
head 4.48119 1.74603 -0.140579
rclavicle 6.03311e-014 -1.74931e-014
rhumerus -69.0739 26.0273 -89.9996
rradius 42.9282
rwrist 0.520155
rhand -11.4261 9.94776
rfingers 7.12502
rthumb 14.6099 -19.5176
lclavicle 6.03311e-014 -1.74931e-014
lhumerus 18.7002 -61.9435 53.1714
lradius 105.382
lwrist 17.8727
lhand -5.95005 -22.6731
lfingers 7.12502
lthumb 19.8804 6.33003
rfemur -30.7509 0.4596 18.2092
rtibia 35.8106
rfoot -22.1305 -11.7046
rtoes -11.0802
lfemur 17.2283 12.7509 -22.3672
ltibia 23.5433
lfoot 10.9285 1.90226
ltoes -12.6376
550
root 8.66281 17.4519 0.546879 2.89974 -16.4424 3.03361
lowerback -11.1826 -6.71287 3.72614
upperback -2.18229 -9.49996 3.31656
thorax 3.89019 -4.67891 0.0379541
lowerneck -9.86965 2.89285 4.90154
upperneck 9.46645 3.00887 1.31054
head 4.5117 1.729 -0.184414
rclavicle 2.75317e-014 -6.36111e-015
rhumerus -68.2477 26.1959 -89.7573
rradius 42.9301
rwrist 0.570025
rhand -11.6178 9.8702
rfingers 7.12502
rthumb 14.4252 -19.6085
lclavicle 2.75317e-014 -6.36111e-015
lhumerus 17.1974 -62.4104 54.5389
lradius 104.664
lwrist 17.5977
lhand -5.87424 -22.7297
lfingers 7.12502
lthumb 19.9532 6.26593
rfemur -30.3382 0.0700485 18.5063
rtibia 36.5402
rfoot -21.9791 -11.983
rtoes -10.7604
lfemur 16.6014 13.0996 -21.82
ltibia 25.8567
lfoot 11.6678 1.649
ltoes -11.4966
551
root 8.6028 17.4296 0.685708 2.6508 -16.5808 2.8884
lowerback -10.999 -6.47049 3.81125
upperback -2.09344 -9.1829 3.31752
thorax 3.8748 -4.52102 0.0520851
lowerneck -9.93459 2.86751 4.90165
upperneck 9.54293 2.98603 1.17184
head 4.5475 1.7114 -0.227185
rclavicle 4.39314e-014 0
rhumerus -67.2579 26.3397 -89.4767
rradius 42.8577
rwrist 0.622172
rhand -11.8464 9.79296
rfingers 7.12502
rthumb 14.2051 -19.7013
lclavicle 4.39314e-014 0
lhumerus 15.4386 -62.8282 56.1488
lradius 103.829
lwrist 17.3249
lhand -5.75536 -22.8101
lfingers 7.12502
lthumb 20.0675 6.17358
rfemur -29.9333 -0.26021 18.8281
rtibia 37.3153
rfoot -21.8144 -12.055
rtoes -10.3413
lfemur 15.9699 13.4148 -21.2609
ltibia 28.2492
lfoot 12.2628 1.40975
ltoes -10.4935
552
root 8.54193 17.4003 0.823715 2.38551 -16.7704 2.69571
lowerback -10.8096 -6.21484 3.94317
upperback -1.97778 -8.85418 3.31687
thorax 3.87767 -4.35599 0.0386829
lowerneck -9.99114 2.84671 4.91982
upperneck 9.61947 2.96708 1.03461
head 4.58228 1.69627 -0.272307
rclavicle 3.37934e-014 -2.38542e-014
rhumerus -66.1059 26.4695 -89.1553
rradius 42.7075
rwrist 0.687354
rhand -12.1125 9.73594
rfingers 7.12502
rthumb 13.9486 -19.7762
lclavicle 3.37934e-014 -2.38542e-014
lhumerus 13.4002 -63.1799 58.0023
lradius 102.897
lwrist 17.074
lhand -5.61849 -22.8992
lfingers 7.12502
lthumb 20.1991 6.07065
rfemur -29.5365 -0.510059 19.1908
rtibia 38.133
rfoot -21.6456 -11.945
rtoes -9.83272
lfemur 15.323 13.6709 -20.6826
ltibia 30.7217
lfoot 12.6285 1.17988
ltoes -9.76309
553
root 8.48066 17.3639 0.961279 2.09572 -16.9838 2.47229
lowerback -10.609 -5.9494 4.10262
upperback -1.83409 -8.51562 3.31029
thorax 3.90017 -4.18481 0.00373678
lowerneck -10.0429 2.82173 4.95289
upperneck 9.68816 2.94047 0.900405
head 4.6139 1.67783 -0.319622
rclavicle 2.17669e-014 -3.81667e-014
rhumerus -64.7806 26.5457 -88.7658
rradius 42.4795
rwrist 0.766369
rhand -12.4079 9.70402
rfingers 7.12502
rthumb 13.6639 -19.8275
lclavicle 2.17669e-014 -3.81667e-014
lhumerus 11.1085 -63.4755 60.0929
lradius 101.867
lwrist 16.8686
lhand -5.49533 -22.972
lfingers 7.12502
lthumb 20.3174 5.98527
rfemur -29.1349 -0.712335 19.5754
rtibia 38.9979
rfoot -21.5078 -11.6703
rtoes -9.1883
lfemur 14.6652 13.8289 -20.1122
ltibia 33.2655
lfoot 12.6754 0.924655
ltoes -9.31523
554
root 8.41898 17.3208 1.0973 1.78993 -17.2146 2.20916
lowerback -10.3831 -5.70092 4.287
upperback -1.68018 -8.20155 3.32194
thorax 3.91947 -4.02542 -0.0283505
lowerneck -10.0426 2.80907 4.96573
upperneck 9.72949 2.93715 0.767103
head 4.62851 1.66951 -0.362762
rclavicle -4.00551e-014 2.8625e-014
rhumerus -63.3113 26.6408 -88.3303
rradius 42.1811
rwrist 0.832197
rhand -12.744 9.69643
rfingers 7.12502
rthumb 13.34 -19.8566
lclavicle -4.00551e-014 2.8625e-014
lhumerus 8.43109 -63.6408 62.5344
lradius 100.738
lwrist 16.6959
lhand -5.3992 -23.0218
lfingers 7.12502
lthumb 20.4098 5.92555
rfemur -28.7315 -0.857461 19.9928
rtibia 39.9092
rfoot -21.419 -11.2929
rtoes -8.38867
lfemur 13.9736 13.8698 -19.5506
ltibia 35.8833
lfoot 12.3272 0.631137
ltoes -9.20011
555
root 8.35733 17.2712 1.23174 1.45736 -17.4421 1.91802
lowerback -10.1217 -5.46465 4.49289
upperback -1.50753 -7.90399 3.33496
thorax 3.93703 -3.87362 -0.0715244
lowerneck -10.0209 2.80122 4.97686
upperneck 9.74233 2.94164 0.639886
head 4.63081 1.66478 -0.403713
rclavicle -9.06458e-014 -7.95139e-015
rhumerus -61.6786 26.6841 -87.8296
rradius 41.8161
rwrist 0.907192
rhand -13.075 9.71778
rfingers 7.12502
rthumb 13.0209 -19.8558
lclavicle -9.06458e-014 -7.95139e-015
lhumerus 5.48519 -63.6919 65.2165
lradius 99.5138
lwrist 16.5762
lhand -5.3404 -23.0274
lfingers 7.12502
lthumb 20.4663 5.91389
rfemur -28.3108 -0.967461 20.4298
rtibia 40.8685
rfoot -21.4067 -10.8712
rtoes -7.39828
lfemur 13.2479 13.7732 -19.0148
ltibia 38.5666
lfoot 11.5422 0.266996
ltoes -9.36404
